<svg width="2113" height="791" viewBox="0 0 2113 791" fill="none" xmlns="http://www.w3.org/2000/svg">
<path fill-rule="evenodd" clip-rule="evenodd" d="M794.904 253.672C864.15 253.672 921.1 196.579 921.1 126.815C921.1 57.1021 864.15 0.359375 794.904 0.359375C724.958 0.359375 668.332 57.1021 668.332 126.815C668.332 196.579 724.971 253.672 794.904 253.672Z" fill="white"/>
<path fill-rule="evenodd" clip-rule="evenodd" d="M1583.79 188.369H1945.88V269.819H1888.74V560.147L2112.07 437.959L2112.87 651.247H1581.77V566.97H1641.32L1641.73 269.819H1584.17L1583.79 188.369V188.369Z" fill="white"/>
<path fill-rule="evenodd" clip-rule="evenodd" d="M1125.72 466.934L1092.51 419.633L976.091 510.266L795.578 281.181L440.142 561.289L491.385 596.8L577.634 528.281L721.676 711.102L679.382 744.033L716.125 790.698L1125.72 466.934V466.934Z" fill="white"/>
<path fill-rule="evenodd" clip-rule="evenodd" d="M2.01032 188.396H363.737V269.82H306.981V560.148L530.321 437.986L530.697 651.247H0V567.346H59.1421L59.5572 269.82H1.6342L2.01032 188.396V188.396ZM1397.4 651.247H1020.34V569.421H1084.34L1083.12 273.49H1019.13V193.22H1399.41C1509.65 192.818 1597.36 269.833 1598.59 421.449C1597.75 577.826 1500.39 651.247 1397.4 651.247V651.247ZM1322.14 508.139C1365.99 507.737 1402.62 482.731 1403.02 415.418C1403.02 350.077 1365.22 321.452 1322.97 321.452L1322.14 508.139V508.139Z" fill="white"/>
</svg>
