<svg width="2114" height="791" viewBox="0 0 2114 791" fill="none" xmlns="http://www.w3.org/2000/svg">
<path fill-rule="evenodd" clip-rule="evenodd" d="M795.483 253.672C864.729 253.672 921.679 196.579 921.679 126.815C921.679 57.1021 864.729 0.359375 795.483 0.359375C725.537 0.359375 668.911 57.1021 668.911 126.815C668.911 196.579 725.55 253.672 795.483 253.672Z" fill="#CC2229"/>
<path fill-rule="evenodd" clip-rule="evenodd" d="M1584.37 188.369H1946.46V269.819H1889.31V560.147L2112.65 437.959L2113.44 651.247H1582.35V566.97H1641.9L1642.3 269.819H1584.75L1584.37 188.369V188.369Z" fill="#1E71B8"/>
<path fill-rule="evenodd" clip-rule="evenodd" d="M1126.3 466.934L1093.09 419.633L976.67 510.266L796.157 281.181L440.721 561.289L491.964 596.8L578.213 528.281L722.255 711.102L679.961 744.033L716.704 790.698L1126.3 466.934V466.934Z" fill="#CC2229"/>
<path fill-rule="evenodd" clip-rule="evenodd" d="M2.58942 188.396H364.316V269.82H307.56V560.148L530.9 437.986L531.276 651.247H0.579102V567.346H59.7212L60.1363 269.82H2.2133L2.58942 188.396V188.396ZM1397.98 651.247H1020.92V569.421H1084.92L1083.7 273.49H1019.7V193.22H1399.99C1510.23 192.818 1597.94 269.833 1599.17 421.449C1598.32 577.826 1500.97 651.247 1397.98 651.247V651.247ZM1322.72 508.139C1366.57 507.737 1403.19 482.731 1403.6 415.418C1403.6 350.077 1365.8 321.452 1323.55 321.452L1322.72 508.139V508.139Z" fill="#1E71B8"/>
</svg>
