<svg width="84" height="84" viewBox="0 0 84 84" fill="none" xmlns="http://www.w3.org/2000/svg">
<path d="M42.0001 77.0001C36.7083 77.015 31.4834 75.8177 26.7261 73.5C24.985 72.6531 23.3169 71.664 21.7386 70.5425L21.2591 70.1925C16.9185 66.9886 13.3697 62.8328 10.8851 58.044C8.31518 53.0876 6.98228 47.583 6.99993 42C6.99993 22.67 22.6701 7 42.0001 7C61.3301 7 77.0003 22.67 77.0003 42C77.0177 47.5804 75.6861 53.0823 73.1186 58.037C70.6375 62.823 67.0936 66.9775 62.7586 70.182C61.1233 71.379 59.3879 72.4329 57.5716 73.332L57.2916 73.472C52.5313 75.802 47.3 77.0089 42.0001 77.0001ZM42.0001 59.4999C36.7553 59.4897 31.9469 62.4191 29.5506 67.0845C37.3955 70.9701 46.6047 70.9701 54.4496 67.0845V67.067C52.0503 62.4067 47.2418 59.484 42.0001 59.4999ZM42.0001 52.5C49.5815 52.5099 56.572 56.5954 60.3016 63.196L60.3541 63.1505L60.4031 63.1085L60.3436 63.161L60.3086 63.189C69.1601 55.5419 72.3251 43.1982 68.2454 32.2354C64.1656 21.2726 53.7009 14.0011 42.0036 14.0011C30.3063 14.0011 19.8416 21.2726 15.7618 32.2354C11.6821 43.1982 14.8471 55.5419 23.6986 63.189C27.4305 56.5916 34.4204 52.5092 42.0001 52.5ZM42.0001 49C34.2681 49 28.0001 42.732 28.0001 35C28.0001 27.268 34.2681 21 42.0001 21C49.7321 21 56.0001 27.268 56.0001 35C56.0001 38.713 54.5251 42.274 51.8996 44.8995C49.2741 47.525 45.7131 49 42.0001 49ZM42.0001 28C38.1341 28 35.0001 31.134 35.0001 35C35.0001 38.866 38.1341 42 42.0001 42C45.8661 42 49.0001 38.866 49.0001 35C49.0001 31.134 45.8661 28 42.0001 28Z" fill="#0050AA"/>
</svg>
